<svg viewBox="0 0 32 32" xmlns="http://www.w3.org/2000/svg"><path d="M15 3v1.3c0 .9-.8 1.7-1.7 1.7h-2.6C9.8 6 9 5.2 9 4.3V3" fill="none" stroke="#cad2e5" stroke-width="2" stroke-linecap="round" stroke-linejoin="round" stroke-miterlimit="10" class="stroke-000000"/><path d="M19 7V5c0-1.1-.9-2-2-2H7c-1.1 0-2 .9-2 2v22c0 1.1.9 2 2 2h10c1.1 0 2-.9 2-2v-2" fill="none" stroke="#cad2e5" stroke-width="2" stroke-linecap="round" stroke-linejoin="round" stroke-miterlimit="10" class="stroke-000000"/><path d="M16 10v12l6-3h5v-9zm3 3h5m-5 3h2M9 25h6" fill="none" stroke="#cad2e5" stroke-width="2" stroke-linecap="round" stroke-linejoin="round" stroke-miterlimit="10" class="stroke-000000"/></svg>